<svg id="Layer_1" viewBox="0 0 512 512" xmlns="http://www.w3.org/2000/svg" data-name="Layer 1"><path d="m243.692 255.166 9.425-9.425-2.945-2.958a5.489 5.489 0 0 1 -.737-6.842 51.654 51.654 0 0 0 6.952-16.671 5.5 5.5 0 0 1 5.413-4.57h4.168v-13.323h-4.168a5.494 5.494 0 0 1 -5.367-4.333 51.858 51.858 0 0 0 -6.82-16.616 5.5 5.5 0 0 1 .548-7.132l2.952-2.952-9.425-9.425-2.958 2.944a5.485 5.485 0 0 1 -6.841.737 51.671 51.671 0 0 0 -16.672-6.953 5.5 5.5 0 0 1 -4.566-5.417v-4.165h-13.323v4.165a5.492 5.492 0 0 1 -4.332 5.367 51.83 51.83 0 0 0 -16.616 6.822 5.5 5.5 0 0 1 -7.133-.549l-2.951-2.951-9.425 9.425 2.945 2.959a5.487 5.487 0 0 1 .737 6.841 51.672 51.672 0 0 0 -6.952 16.672 5.5 5.5 0 0 1 -5.417 4.565h-4.167v13.319h4.167a5.493 5.493 0 0 1 5.367 4.332 51.851 51.851 0 0 0 6.821 16.616 5.5 5.5 0 0 1 -.549 7.133l-2.952 2.951 9.425 9.425 2.958-2.944a5.488 5.488 0 0 1 6.842-.737 51.634 51.634 0 0 0 16.671 6.953 5.5 5.5 0 0 1 4.566 5.417v4.165h13.327v-4.165a5.493 5.493 0 0 1 4.332-5.367 51.851 51.851 0 0 0 16.616-6.821 5.5 5.5 0 0 1 7.133.548l2.951 2.951zm19.081-3.538-13.194 13.194a8.331 8.331 0 0 1 -11.774 0l-1.824-1.822a62.4 62.4 0 0 1 -12.333 5.117c0 5.548-1.81 10.9-8.327 10.9h-18.659a8.376 8.376 0 0 1 -8.326-8.327v-2.57a62.537 62.537 0 0 1 -12.336-5.12c-2.3 2.3-3.958 4.26-7.711 4.26a8.3 8.3 0 0 1 -5.886-2.436l-13.193-13.196a8.333 8.333 0 0 1 0-11.774l1.826-1.825a62.4 62.4 0 0 1 -5.117-12.332c-5.548 0-10.9-1.809-10.9-8.327v-18.659a8.338 8.338 0 0 1 8.327-8.326h2.573a62.371 62.371 0 0 1 5.117-12.332c-2.3-2.3-4.262-3.96-4.262-7.713a8.278 8.278 0 0 1 2.447-5.876l13.183-13.2a8.332 8.332 0 0 1 11.774 0l1.822 1.82a62.358 62.358 0 0 1 12.333-5.118c0-3.247-.212-5.8 2.442-8.456a8.3 8.3 0 0 1 5.884-2.442h18.659a8.358 8.358 0 0 1 8.327 8.327v2.571a62.468 62.468 0 0 1 12.333 5.118c2.3-2.3 3.958-4.261 7.711-4.261a8.3 8.3 0 0 1 5.887 2.437l13.194 13.193a8.308 8.308 0 0 1 -.011 11.764l-1.814 1.836a62.367 62.367 0 0 1 5.116 12.332c3.346 0 6.39-.17 8.929 2.978a8.275 8.275 0 0 1 1.971 5.348v18.659a8.337 8.337 0 0 1 -8.327 8.327h-2.572a62.516 62.516 0 0 1 -5.117 12.332c2.3 2.3 4.261 3.958 4.261 7.712a8.3 8.3 0 0 1 -2.436 5.887zm-35.724-64.645a29.78 29.78 0 1 1 -42.115 0 29.781 29.781 0 0 1 42.115 0zm-21.057-19.713a40.771 40.771 0 1 1 -40.772 40.771 40.773 40.773 0 0 1 40.772-40.771zm-30.4 251.3h27.417v-100.039h-27.42v100.04zm-38.409 0h27.417v-77h-27.42v77zm-38.409 0h27.417v-46.562h-27.42v46.563zm116.519 0a5.5 5.5 0 1 1 0 10.992h-128.805a5.5 5.5 0 0 1 0-10.992h1.291v-52.06a5.5 5.5 0 0 1 5.5-5.5h32.913v-24.939a5.5 5.5 0 0 1 5.5-5.5h32.908v-17.54a5.5 5.5 0 0 1 5.5-5.5h38.4a5.5 5.5 0 0 1 5.5 5.5v105.54zm-91.511-314.57h103.428a3.15 3.15 0 0 0 3.136-3.136v-33.329a2.727 2.727 0 0 0 -2.705-2.7h-22.759a5.5 5.5 0 0 1 -5.5-5.486 23.882 23.882 0 0 0 -7.5-15.638c-14.751-13.853-39.093-4.132-40.306 15.95a5.484 5.484 0 0 1 -5.474 5.162l-22.76.012a2.726 2.726 0 0 0 -2.7 2.7v33.326a3.15 3.15 0 0 0 3.14 3.139zm166.938 302.356h-36.858v36.857zm-178.478-297.356a14.125 14.125 0 0 0 11.54 5.987h103.428a14.125 14.125 0 0 0 11.54-5.987h59.741v286.363h-50.125a5.5 5.5 0 0 0 -5.5 5.5v50.126h-190.557v-341.989zm326.423 170.36c-12.923-14.34-34.768-3.894-34.768 16.709s21.844 31.049 34.768 16.71c8.257-9.163 8.257-24.257 0-33.419zm-14.289-17.61c18.054 0 31.472 16.12 31.472 34.319s-13.418 34.319-31.472 34.319-31.476-16.119-31.476-34.319 13.419-34.319 31.472-34.319zm-287.736 16.461a5.486 5.486 0 1 1 1.546-10.863l19.046 2.71a5.486 5.486 0 0 1 4.658 6.2l-2.71 19.046a5.486 5.486 0 1 1 -10.863-1.546l.916-6.434-14.875 10.543-2.933 14.533a5.464 5.464 0 0 1 -3.07 3.993l-16.839 7.882c-.687.569-13.612 19.4-15.214 20.725l-17.558 14.537a5.49 5.49 0 0 1 -7-8.459l17.023-14.094 14.674-20.275a5.463 5.463 0 0 1 2.477-1.9l15.3-7.161 2.84-14.068a5.453 5.453 0 0 1 2.194-3.386v-.007l15.806-11.2-5.413-.77zm187.36-60.698v254.124a3.151 3.151 0 0 1 -3.137 3.136h-290.73a3.15 3.15 0 0 1 -3.133-3.136v-383.287a3.151 3.151 0 0 1 3.137-3.136h79.521v12.8h-62.845a5.5 5.5 0 0 0 -5.5 5.5v352.967a5.5 5.5 0 0 0 5.5 5.5h201.553a5.475 5.475 0 0 0 3.025-.906c1.392-.92 50.526-50.443 56.433-56.276a5.467 5.467 0 0 0 1.66-3.936v-183.35zm10.992-96.99h81.519a10.972 10.972 0 0 1 11.1 10.752v75.486a10.972 10.972 0 0 1 -11.1 10.752h-4.111l-.016 24.444a5.487 5.487 0 0 1 -8.4 4.638l-46.234-29.082h-22.762v254.124a14.147 14.147 0 0 1 -14.129 14.128h-290.726a14.148 14.148 0 0 1 -14.133-14.128v-383.287a14.147 14.147 0 0 1 14.133-14.128h79.521c0-6.424-.784-11.561 4.019-16.364a13.657 13.657 0 0 1 9.677-4.02h18c5.637-26.338 38.134-36.824 58.05-18.118a34.885 34.885 0 0 1 10.243 18.118h17.994a13.724 13.724 0 0 1 13.7 13.7v6.687h79.521a14.148 14.148 0 0 1 14.13 14.125v32.173zm-25.5 0h14.508v-32.173a3.152 3.152 0 0 0 -3.137-3.136h-79.525v12.8h62.65a5.5 5.5 0 0 1 5.5 5.5v17.017zm0 86h49.808a5.47 5.47 0 0 1 3.277 1.084l38.824 24.421v-20.011a5.5 5.5 0 0 1 5.5-5.5l9.716-.007v-74.988l-107.133-.006v75.005zm181.008 236.024a5.5 5.5 0 0 0 5.5-5.5v-70.029c0-17.406-15.677-30.427-33.221-30.427h-76.8c-17.543 0-33.222 13.02-33.222 30.427v70.032a5.5 5.5 0 0 0 5.5 5.5zm-126.751-10.993h18.721v-58.4a5.5 5.5 0 1 1 10.992 0v58.4h61.828v-58.4a5.5 5.5 0 0 1 10.993 0v58.4h18.717v-64.536c0-11.256-10.706-19.434-22.229-19.434h-76.8c-11.523 0-22.229 8.178-22.229 19.434v64.536zm-8.78-269.028h35.458a5.5 5.5 0 0 0 0-10.992h-35.458a5.5 5.5 0 1 0 0 10.992zm-28.93 0h12.551a5.5 5.5 0 1 0 0-10.992h-12.551a5.5 5.5 0 1 0 0 10.992zm38.445 23.218h25.943a5.5 5.5 0 0 0 0-10.992h-25.943a5.5 5.5 0 1 0 0 10.992zm-38.445 0h21.343a5.5 5.5 0 0 0 0-10.992h-21.343a5.5 5.5 0 1 0 0 10.992z" fill-rule="evenodd"/></svg>