<svg id="Layer_3" height="512" viewBox="0 0 64 64" width="512" xmlns="http://www.w3.org/2000/svg" data-name="Layer 3"><path d="m5 6v52a1 1 0 0 0 1 1h52a1 1 0 0 0 1-1v-52a1 1 0 0 0 -1-1h-52a1 1 0 0 0 -1 1zm2 1h50v50h-50z"/><path d="m1 28h2v2h-2z"/><path d="m1 24h2v2h-2z"/><path d="m1 20h2v2h-2z"/><path d="m1 16h2v2h-2z"/><path d="m1 12h2v2h-2z"/><path d="m1 8h2v2h-2z"/><path d="m28 1h2v2h-2z"/><path d="m24 1h2v2h-2z"/><path d="m20 1h2v2h-2z"/><path d="m16 1h2v2h-2z"/><path d="m12 1h2v2h-2z"/><path d="m8 1h2v2h-2z"/><path d="m3 3h3v-2h-4a1 1 0 0 0 -1 1v4h2z"/><path d="m34 61h2v2h-2z"/><path d="m38 61h2v2h-2z"/><path d="m42 61h2v2h-2z"/><path d="m46 61h2v2h-2z"/><path d="m50 61h2v2h-2z"/><path d="m54 61h2v2h-2z"/><path d="m61 33.999h2v2h-2z"/><path d="m61 37.999h2v2h-2z"/><path d="m61 41.999h2v2h-2z"/><path d="m61 45.999h2v2h-2z"/><path d="m61 49.999h2v2h-2z"/><path d="m61 53.999h2v2h-2z"/><path d="m61 61h-3v2h4a1 1 0 0 0 1-1v-4h-2z"/><path d="m62 1h-30v2h29v29h2v-30a1 1 0 0 0 -1-1z"/><path d="m2 63h30v-2h-29v-29h-2v30a1 1 0 0 0 1 1z"/><path d="m40 11a8.955 8.955 0 0 0 -5.644 2h-12.356a5.006 5.006 0 0 0 -5 5v30a5.006 5.006 0 0 0 5 5h16a5.006 5.006 0 0 0 5-5v-19.525a8.994 8.994 0 0 0 -3-17.475zm-18 4h10.522a9 9 0 0 0 -1 2h-12.338a3 3 0 0 1 2.816-2zm16 36h-16a3 3 0 0 1 -3-3v-3h22v3a3 3 0 0 1 -3 3zm3-8h-22v-24h12.059a8.972 8.972 0 0 0 9.941 9.941zm-1-16a7 7 0 1 1 7-7 7.008 7.008 0 0 1 -7 7z"/><path d="m40.472 15.118a1 1 0 0 0 -1.027.05l-3 2 1.11 1.664 1.445-.963v7.131h2v-9a1 1 0 0 0 -.528-.882z"/><path d="m28 47h4v2h-4z"/></svg>