<svg height="512pt" viewBox="0 0 512 512" width="512pt" xmlns="http://www.w3.org/2000/svg"><path d="m266.667969 437.332031h-64v-21.332031h64c5.890625 0 10.664062-4.777344 10.664062-10.667969s-4.773437-10.664062-10.664062-10.664062h-53.335938c-5.890625 0-10.664062-4.777344-10.664062-10.667969v-10.667969c0-5.890625-4.777344-10.664062-10.667969-10.664062h-96v-21.335938h96c17.671875 0 32 14.328125 32 32h42.667969c17.671875 0 32 14.328125 32 32 0 17.675781-14.328125 32-32 32zm0 0"/><path d="m394.667969 512h-224c-2.828125 0-5.542969-1.125-7.542969-3.125l-28.875-28.875h-38.25v-21.332031h42.667969c2.828125 0 5.539062 1.125 7.539062 3.125l28.875 28.875h219.585938c5.890625 0 10.664062-4.777344 10.664062-10.667969s-4.773437-10.667969-10.664062-10.667969h-106.667969c-2.828125 0-5.542969-1.125-7.542969-3.125l-32-32 15.085938-15.082031 28.871093 28.875h102.253907c17.671875 0 32 14.328125 32 32s-14.328125 32-32 32zm0 0"/><path d="m74.667969 512h-64c-5.890625 0-10.667969-4.777344-10.667969-10.667969v-170.664062c0-5.890625 4.777344-10.667969 10.667969-10.667969h64c17.671875 0 32 14.328125 32 32v128c0 17.671875-14.328125 32-32 32zm-53.335938-21.332031h53.335938c5.890625 0 10.664062-4.777344 10.664062-10.667969v-128c0-5.890625-4.773437-10.667969-10.664062-10.667969h-53.335938zm0 0"/><path d="m42.667969 362.667969h21.332031v21.332031h-21.332031zm0 0"/><path d="m362.667969 362.667969c-5.890625 0-10.667969-4.777344-10.667969-10.667969v-53.332031h-106.667969c-17.671875 0-32-14.328125-32-32v-234.667969c0-17.671875 14.328125-32 32-32h234.667969c17.671875 0 32 14.328125 32 32v234.667969c0 17.671875-14.328125 32-32 32h-48.917969l-60.875 60.875c-2 2-4.710937 3.125-7.539062 3.125zm-117.335938-341.335938c-5.890625 0-10.664062 4.777344-10.664062 10.667969v234.667969c0 5.890625 4.773437 10.664062 10.664062 10.664062h117.335938c5.890625 0 10.664062 4.777344 10.664062 10.667969v38.25l45.792969-45.792969c2-2 4.714844-3.125 7.542969-3.125h53.332031c5.890625 0 10.667969-4.773437 10.667969-10.664062v-234.667969c0-5.890625-4.777344-10.667969-10.667969-10.667969zm0 0"/><path d="m128 288c-2.828125 0-5.542969-1.125-7.542969-3.125l-39.539062-39.542969h-48.917969c-17.671875 0-32-14.324219-32-32v-128c0-17.671875 14.328125-32 32-32h160v21.335938h-160c-5.890625 0-10.667969 4.773437-10.667969 10.664062v128c0 5.890625 4.777344 10.667969 10.667969 10.667969h53.332031c2.828125 0 5.542969 1.125 7.542969 3.125l24.457031 24.460938v-16.917969c0-5.890625 4.777344-10.667969 10.667969-10.667969h64v21.332031h-53.332031v32c0 5.890625-4.777344 10.667969-10.667969 10.667969zm0 0"/><path d="m384 256h-42.667969c-5.890625 0-10.664062-4.777344-10.664062-10.667969v-16.894531l-1.3125-.542969-11.949219 11.945313c-4.230469 4-10.847656 4-15.082031 0l-30.175781-30.175782c-4.164063-4.164062-4.164063-10.917968 0-15.082031l11.949218-11.9375-.535156-1.3125h-16.894531c-5.890625 0-10.667969-4.773437-10.667969-10.664062v-42.667969c0-5.890625 4.777344-10.667969 10.667969-10.667969h16.894531l.535156-1.3125-11.949218-11.945312c-4.164063-4.164063-4.164063-10.917969 0-15.082031l30.175781-30.164063c2-2.003906 4.714843-3.125 7.542969-3.125 2.828124 0 5.539062 1.121094 7.539062 3.125l11.949219 11.945313 1.3125-.542969v-16.898438c0-5.890625 4.773437-10.664062 10.664062-10.664062h42.667969c5.890625 0 10.667969 4.773437 10.667969 10.664062v16.898438l1.3125.542969 11.945312-11.945313c4.230469-4.003906 10.851563-4.003906 15.082031 0l30.175782 30.164063c4.164062 4.164062 4.164062 10.917968 0 15.082031l-11.945313 11.945312.53125 1.3125h16.898438c5.890625 0 10.664062 4.777344 10.664062 10.667969v42.667969c0 5.890625-4.773437 10.664062-10.664062 10.664062h-16.898438l-.53125 1.3125 11.945313 11.9375c4.164062 4.164063 4.164062 10.917969 0 15.082031l-30.175782 30.175782c-2 2-4.710937 3.125-7.542968 3.125-2.828125 0-5.539063-1.125-7.539063-3.125l-11.945312-11.945313-1.3125.542969v16.894531c0 5.890625-4.777344 10.667969-10.667969 10.667969zm-32-21.332031h21.332031v-13.804688c.003907-4.714843 3.097657-8.871093 7.617188-10.21875 4.210937-1.246093 8.28125-2.921875 12.148437-5 4.152344-2.253906 9.292969-1.507812 12.628906 1.832031l9.738282 9.738282 15.085937-15.09375-9.738281-9.726563c-3.34375-3.339843-4.089844-8.476562-1.835938-12.628906 2.085938-3.863281 3.761719-7.9375 5.003907-12.148437 1.347656-4.519532 5.5-7.617188 10.21875-7.617188h13.800781v-21.332031h-13.800781c-4.71875-.003907-8.875-3.105469-10.21875-7.628907-1.242188-4.210937-2.917969-8.285156-5.003907-12.148437-2.253906-4.152344-1.507812-9.289063 1.835938-12.628906l9.738281-9.738281-15.085937-15.074219-9.738282 9.738281c-3.335937 3.34375-8.476562 4.089844-12.628906 1.835938-3.867187-2.078126-7.9375-3.753907-12.148437-5.003907-4.519531-1.347656-7.613281-5.5-7.617188-10.21875v-13.800781h-21.332031v13.800781c0 4.71875-3.097656 8.871094-7.617188 10.21875-4.210937 1.25-8.28125 2.925781-12.148437 5.003907-4.152344 2.253906-9.289063 1.507812-12.628906-1.835938l-9.738281-9.738281-15.082032 15.085937 9.738282 9.738282c3.339843 3.335937 4.085937 8.476562 1.832031 12.628906-2.085938 3.863281-3.761719 7.933594-5 12.148437-1.34375 4.523438-5.5 7.625-10.21875 7.625h-13.804688v21.335938h13.804688c4.71875 0 8.875 3.101562 10.21875 7.625 1.238281 4.214843 2.914062 8.285156 5 12.148437 2.253906 4.152344 1.507812 9.292969-1.832031 12.628906l-9.738282 9.730469 15.082032 15.09375 9.738281-9.738281c3.339843-3.339844 8.476562-4.089844 12.628906-1.835938 3.867187 2.078126 7.9375 3.753907 12.148437 5.003907 4.519532 1.347656 7.617188 5.503906 7.617188 10.21875zm0 0"/><path d="m362.667969 192c-23.566407 0-42.667969-19.101562-42.667969-42.667969 0-23.5625 19.101562-42.664062 42.667969-42.664062v21.332031c-11.785157 0-21.335938 9.550781-21.335938 21.332031 0 11.785157 9.550781 21.335938 21.335938 21.335938 11.78125 0 21.332031-9.550781 21.332031-21.335938h21.332031c0 23.566407-19.101562 42.667969-42.664062 42.667969zm0 0"/><path d="m42.667969 96h21.332031v21.332031h-21.332031zm0 0"/><path d="m85.332031 96h106.667969v21.332031h-106.667969zm0 0"/><path d="m42.667969 138.667969h149.332031v21.332031h-149.332031zm0 0"/><path d="m42.667969 181.332031h149.332031v21.335938h-149.332031zm0 0"/></svg>