<svg clip-rule="evenodd" fill-rule="evenodd" height="512" image-rendering="optimizeQuality" shape-rendering="geometricPrecision" text-rendering="geometricPrecision" viewBox="0 0 512 512" width="512" xmlns="http://www.w3.org/2000/svg"><g id="Layer_x0020_1"><g fill-rule="nonzero"><path d="m128 0h256c4 0 8 2 10 4 1 1 1 1 1 1 2 3 4 6 4 10v180c0 4-2 8-5 11l-4-5 4 5c-2 2-6 4-10 4h-256c-4 0-8-2-10-4-1 0-1-1-1-1-2-2-4-6-4-10v-180c0-4 2-8 5-11l4 5-4-5c2-2 6-4 10-4zm256 12h-256c-1 0-1 0-2 1s-1 1-1 2v180c0 1 0 1 1 2 1 1 1 1 2 1h256c1 0 1 0 2-1s1-1 1-2v-180c0-1 0-1-1-2-1-1-1-1-2-1z"/><path d="m119 49c-3 0-6 3-6 6s3 6 6 6h274c3 0 6-3 6-6s-3-6-6-6z"/><path d="m146 15c5 0 8 2 11 5l-4 4 4-4c3 3 5 6 5 11 0 4-2 7-5 10v1c-3 2-7 4-11 4s-7-2-10-5 0 0-1 0c-2-3-4-7-4-10 0-5 2-8 5-11s6-5 10-5zm3 13c-1 0-2-1-3-1 0 0-1 1-2 1 0 1-1 2-1 3 0 0 1 1 1 2l-4 4 4-4c1 0 2 1 2 1 1 0 2-1 2-1h1l4 4-4-4c0-1 1-2 1-2 0-1-1-2-1-3z"/><path d="m182 15c4 0 8 2 11 5l-4 4 4-4c3 3 4 6 4 11 0 4-1 7-4 10s0 0-1 1c-2 2-6 4-10 4s-8-2-11-5c-2-3-4-7-4-10 0-5 2-8 4-11 1 0 1 0 1-1 3-2 6-4 10-4zm2 13s-1-1-2-1-1 1-2 1l-4-4 4 4c-1 1-1 2-1 3 0 0 0 1 1 2 1 0 1 1 2 1s2-1 2-1l5 4-5-4c1-1 1-2 1-2 0-1 0-2-1-3z"/><path d="m218 15c4 0 8 2 11 5l-5 4 5-4c2 3 4 6 4 11 0 4-2 7-4 10-1 0-1 0-1 1-3 2-6 4-10 4s-8-2-11-5c-3-3-4-7-4-10 0-5 1-8 4-11s0 0 1-1c2-2 6-4 10-4zm2 13c-1 0-1-1-2-1s-2 1-2 1l-5-4 5 4c-1 1-1 2-1 3v2h1s1 1 2 1 1-1 2-1l4 4-4-4c1-1 1-2 1-2 0-1 0-2-1-3z"/><path d="m146 69c-3 0-6 3-6 6 0 4 3 6 6 6h16c3 0 6-2 6-6 0-3-3-6-6-6z"/><path d="m187 69c-4 0-6 3-6 6 0 4 2 6 6 6h16c3 0 6-2 6-6 0-3-3-6-6-6z"/><path d="m228 69c-4 0-6 3-6 6 0 4 2 6 6 6h16c3 0 6-2 6-6 0-3-3-6-6-6z"/><path d="m268 69c-3 0-6 3-6 6 0 4 3 6 6 6h16c4 0 6-2 6-6 0-3-2-6-6-6z"/><path d="m309 69c-3 0-6 3-6 6 0 4 3 6 6 6h16c4 0 6-2 6-6 0-3-2-6-6-6z"/><path d="m350 69c-3 0-6 3-6 6 0 4 3 6 6 6h16c3 0 6-2 6-6 0-3-3-6-6-6z"/><path d="m146 178c-3 0-6 2-6 6 0 3 3 6 6 6h16c3 0 6-3 6-6 0-4-3-6-6-6z"/><path d="m187 178c-4 0-6 2-6 6 0 3 2 6 6 6h16c3 0 6-3 6-6 0-4-3-6-6-6z"/><path d="m228 178c-4 0-6 2-6 6 0 3 2 6 6 6h16c3 0 6-3 6-6 0-4-3-6-6-6z"/><path d="m268 178c-3 0-6 2-6 6 0 3 3 6 6 6h16c4 0 6-3 6-6 0-4-2-6-6-6z"/><path d="m309 178c-3 0-6 2-6 6 0 3 3 6 6 6h16c4 0 6-3 6-6 0-4-2-6-6-6z"/><path d="m350 178c-3 0-6 2-6 6 0 3 3 6 6 6h16c3 0 6-3 6-6 0-4-3-6-6-6z"/><path d="m142 89c0-3-3-6-6-6-4 0-6 3-6 6v12c0 3 2 6 6 6 3 0 6-3 6-6z"/><path d="m142 120c0-3-3-6-6-6-4 0-6 3-6 6v12c0 3 2 6 6 6 3 0 6-3 6-6z"/><path d="m142 151c0-3-3-6-6-6-4 0-6 3-6 6v12c0 3 2 6 6 6 3 0 6-3 6-6z"/><path d="m382 89c0-3-2-6-6-6-3 0-6 3-6 6v12c0 3 3 6 6 6 4 0 6-3 6-6z"/><path d="m382 120c0-3-2-6-6-6-3 0-6 3-6 6v12c0 3 3 6 6 6 4 0 6-3 6-6z"/><path d="m382 151c0-3-2-6-6-6-3 0-6 3-6 6v12c0 3 3 6 6 6 4 0 6-3 6-6z"/><path d="m255 25c-4 0-6 2-6 6 0 3 2 6 6 6h19c3 0 6-3 6-6 0-4-3-6-6-6z"/><path d="m296 25c-3 0-6 2-6 6 0 3 3 6 6 6h19c3 0 6-3 6-6 0-4-3-6-6-6z"/><path d="m337 25c-3 0-6 2-6 6 0 3 3 6 6 6h19c4 0 6-3 6-6 0-4-2-6-6-6z"/><path d="m393 71c-3 0-6 2-6 6 0 3 3 6 6 6h56c4 0 8 1 10 4 3 3 5 6 5 10v302c0 4-2 7-5 10-2 3-6 4-10 4h-386c-4 0-8-1-10-4-3-3-5-6-5-10v-302c0-4 2-7 5-10 2-3 6-4 10-4h56c3 0 6-3 6-6 0-4-3-6-6-6h-56c-7 0-14 3-19 7v1l4 4-4-4c-5 4-8 11-8 18v302c0 7 3 14 8 18 5 5 12 8 19 8h386c7 0 14-3 19-7v-1l-4-4 4 4c5-5 8-11 8-18v-302c0-7-3-14-8-18-5-5-12-8-19-8z"/><path d="m393 114c-3 0-6 3-6 6 0 4 3 6 6 6h9c3 0 5 1 7 3 1 1 2 3 2 5v200c0 2-1 3-2 5-2 1-4 2-7 2h-292c-3 0-5-1-7-2-1-2-2-3-2-5v-200c0-2 1-4 2-5 2-2 4-3 7-3h9c3 0 6-2 6-6 0-3-3-6-6-6h-9c-6 0-11 2-15 6-4 3-6 8-6 14v200c0 5 2 10 6 14 4 3 9 5 15 5h292c6 0 11-2 15-5 4-4 6-9 6-14v-200c0-6-2-11-6-14-4-4-9-6-15-6z"/><path d="m256 362c6 0 11 2 15 6l-4 4 4-4c4 4 7 10 7 16s-3 11-7 15c-4 4-9 6-15 6s-11-2-15-6c-1 0-1 0-1 0-4-4-6-10-6-15 0-6 3-12 7-16 4-4 9-6 15-6zm7 15c-2-2-4-3-7-3s-5 1-7 2v1c-2 1-3 4-3 7 0 2 1 5 3 6v1l-4 4 4-4c2 1 4 2 7 2s5-1 7-2l4 4-4-4c2-2 3-5 3-7 0-3-1-6-3-7z"/><path d="m287 419c0-3-3-6-6-6s-6 3-6 6v45c0 4 3 6 6 6h107c5 0 10 2 14 5 3 3 5 6 5 10s-2 8-5 10c-4 3-9 5-14 5h-264c-5 0-10-2-14-5-3-2-5-6-5-10s2-7 5-10h1c3-3 8-5 13-5h107c3 0 6-2 6-6v-45c0-3-3-6-6-6s-6 3-6 6v39h-101c-8 0-15 3-21 7v1l4 4-4-4c-6 5-10 12-10 19 0 8 4 15 10 19 5 5 13 8 21 8h264c8 0 16-3 21-8 6-4 10-11 10-19 0-7-4-14-10-19-5-5-13-8-21-8h-101z"/></g><g><path d="m256 97c-1 0-2 0-2 1-1 0-1 1-1 2v14c0 4-3 6-6 6-1 0-3 0-4-1l-11-7 3-5-1 1-2 4h-1s-1 0-2 0-1 1-2 1l-5-3 1 1 4 2v1 2s1 1 1 2l-3 5 3-5h1l12 7c3 1 4 5 2 8-1 1-1 2-2 2l-13 7-3-5 1 2 2 3c0 1-1 1-1 2v2l1 1s1 1 1 1h3v-1l12-7 3 6-3-6c3-1 6 0 8 3 1 1 1 2 1 3v14c0 1 0 2 1 2 0 1 1 1 2 1s2 0 2-1c1-1 1-1 1-2v-14c0-4 3-6 6-6 1 0 3 0 4 1l11 7-3 5 1-1 2-4h1 2c1 0 1-1 2-2l5 3h-2l-3-3s0-1 0-2-1-1-1-2l3-5-3 5c-1 0-1 0-1 0l-12-7c-3-2-4-5-2-8 1-1 1-2 2-2l12-7s1 0 1-1c0 0 1-1 1-1 0-1 0-2 0-2v-1zm-11-8c3-2 7-4 11-4s8 2 11 4c2 3 4 7 4 11v4l3-2c4-2 8-3 12-2 3 1 7 4 9 7v1c2 3 2 7 2 11-1 3-4 7-7 9l-4 2 3 2h1c3 2 6 6 7 9 0 4 0 7-2 11v1c-2 3-6 6-9 6-4 1-7 1-11-1h-1l-3-2v4c0 4-1 7-4 10v1c-3 2-7 4-11 4s-8-2-11-4c-2-3-4-7-4-11v-4l-3 2-3-5 3 5c-4 2-8 2-12 1-3 0-7-3-9-6v-1c-2-3-2-7-2-11 1-4 4-7 7-9h1l3-2-3-2s0 0-1 0c-3-2-6-5-7-9 0-4 0-8 2-11 0 0 0 0 0-1 2-3 6-6 9-7 4-1 7 0 11 2h1l3 2v-4c0-4 2-8 4-11zm40 24c-1 0-2-1-2-1-1 0-2 0-3 0l-12 7c-3 2-6 1-8-2-1-1-1-2-1-3v-14c0-1 0-2-1-2l4-5-4 5c0-1-1-1-2-1z" fill-rule="nonzero"/></g></g></svg>