<svg id="Layer_1" height="512" viewBox="0 0 110 110" width="512" xmlns="http://www.w3.org/2000/svg" data-name="Layer 1"><path d="m37.87 40.58a17.29 17.29 0 1 1 25.34 15.29h12.89l-1.94-1.94a1 1 0 0 1 0-1.42 1 1 0 0 1 1.41 0l3.65 3.65a1 1 0 0 1 0 1.41l-3.65 3.65a1 1 0 0 1 -1.41 0 1 1 0 0 1 0-1.41l1.94-1.94h-44.61a1 1 0 0 1 0-2h23.67a15.3 15.3 0 1 0 -13.79-8.69l.91-2.63a1 1 0 1 1 1.89.66l-1.69 4.87a1 1 0 0 1 -.94.67 1.26 1.26 0 0 1 -.33 0l-4.87-1.75a1 1 0 0 1 .66-1.88l2.56.89a17.29 17.29 0 0 1 -1.69-7.43zm22.27-9.23a1 1 0 0 0 -1.34.44l-8.8 17.21a1 1 0 0 0 .43 1.35 1.07 1.07 0 0 0 .46.11 1 1 0 0 0 .89-.55l8.8-17.21a1 1 0 0 0 -.44-1.35zm-.6 16.26a1 1 0 0 0 .7.3 1 1 0 0 0 .71-.3l3.51-3.51a1 1 0 0 0 0-1.41l-3.46-3.51a1 1 0 0 0 -1.41 1.41l2.8 2.81-2.8 2.8a1 1 0 0 0 -.05 1.41zm-8.54-13.52a1 1 0 0 0 -1.42 0l-3.51 3.51a1 1 0 0 0 0 1.41l3.51 3.51a1 1 0 0 0 .71.3 1 1 0 0 0 .71-1.71l-2.8-2.8 2.8-2.81a1 1 0 0 0 0-1.41zm50.52-15.09v54.37a8.86 8.86 0 0 1 -8.84 8.85h-26.28v10h2.81a6.64 6.64 0 0 1 6.63 6.65 1 1 0 0 1 -1 1h-39.67a1 1 0 0 1 -1-1 6.64 6.64 0 0 1 6.62-6.65h2.81v-10h-26.28a8.86 8.86 0 0 1 -8.84-8.85v-54.37a8.85 8.85 0 0 1 8.84-8.83h75.36a8.85 8.85 0 0 1 8.84 8.83zm-36.06 75.19h-.06-20.8-.06-3.75a4.66 4.66 0 0 0 -4.52 3.65h37.46a4.66 4.66 0 0 0 -1.24-2.28 4.61 4.61 0 0 0 -3.28-1.37zm-1.06-2v-10h-18.8v10zm35.12-73.19a6.84 6.84 0 0 0 -6.84-6.83h-75.36a6.84 6.84 0 0 0 -6.84 6.83v54.37a6.86 6.86 0 0 0 6.84 6.85h27.2.08 20.8.09 27.19a6.86 6.86 0 0 0 6.84-6.85zm-40.67 54.53a3.85 3.85 0 1 1 -3.85-3.85 3.85 3.85 0 0 1 3.85 3.85zm-2 0a1.85 1.85 0 1 0 -1.85 1.84 1.85 1.85 0 0 0 1.85-1.84zm36.95-54.65v47a1 1 0 0 1 -1 1h-75.6a1 1 0 0 1 -1-1v-47a1 1 0 0 1 1-1h75.6a1 1 0 0 1 1 1zm-2 1h-73.6v45h73.6zm-69 4.94h18.63a1 1 0 0 0 0-2h-18.61a1 1 0 0 0 0 2zm12 5.23a1 1 0 0 0 0-2h-2a1 1 0 0 0 0 2zm-12 0h6.73a1 1 0 0 0 0-2h-6.71a1 1 0 0 0 0 2z"/></svg>