<svg version="1.1" id="Layer_1" xmlns="http://www.w3.org/2000/svg" xmlns:xlink="http://www.w3.org/1999/xlink" x="0px" y="0px" viewBox="0 0 512 512" style="enable-background:new 0 0 512 512;" xml:space="preserve">
<g>
	<g>
		<path d="M341.527,200.371c6.724,0,12.194-5.471,12.194-12.194v-51.424c0-6.724-5.47-12.194-12.194-12.194h-67.835&#10;&#9;&#9;&#9;c-6.724,0-12.195,5.471-12.195,12.194v51.424c0,6.724,5.471,12.194,12.195,12.194H341.527z M276.497,139.559h62.225v45.812&#10;&#9;&#9;&#9;h-62.225V139.559z"/>
		<path d="M169.333,30c-12.407,0-22.5,10.094-22.5,22.5s10.093,22.5,22.5,22.5s22.5-10.094,22.5-22.5S181.74,30,169.333,30z&#10;&#9;&#9;&#9; M169.333,60c-4.136,0-7.5-3.364-7.5-7.5s3.364-7.5,7.5-7.5s7.5,3.364,7.5,7.5S173.469,60,169.333,60z"/>
		<path d="M231.833,30c-12.407,0-22.5,10.094-22.5,22.5s10.093,22.5,22.5,22.5s22.5-10.094,22.5-22.5S244.24,30,231.833,30z&#10;&#9;&#9;&#9; M231.833,60c-4.136,0-7.5-3.364-7.5-7.5s3.364-7.5,7.5-7.5s7.5,3.364,7.5,7.5S235.969,60,231.833,60z"/>
		<path d="M294.333,30c-12.407,0-22.5,10.094-22.5,22.5s10.093,22.5,22.5,22.5s22.5-10.094,22.5-22.5S306.74,30,294.333,30z&#10;&#9;&#9;&#9; M294.333,60c-4.136,0-7.5-3.364-7.5-7.5s3.364-7.5,7.5-7.5s7.5,3.364,7.5,7.5S298.469,60,294.333,60z"/>
		<path d="M160.282,140.371h24.577c4.142,0,7.5-3.357,7.5-7.5s-3.358-7.5-7.5-7.5h-24.577c-4.142,0-7.5,3.357-7.5,7.5&#10;&#9;&#9;&#9;S156.14,140.371,160.282,140.371z"/>
		<path d="M160.282,170.371h60c4.142,0,7.5-3.357,7.5-7.5s-3.358-7.5-7.5-7.5h-60c-4.142,0-7.5,3.357-7.5,7.5&#10;&#9;&#9;&#9;S156.14,170.371,160.282,170.371z"/>
		<path d="M160.282,200.371h43.5c4.142,0,7.5-3.357,7.5-7.5s-3.358-7.5-7.5-7.5h-43.5c-4.142,0-7.5,3.357-7.5,7.5&#10;&#9;&#9;&#9;S156.14,200.371,160.282,200.371z"/>
		<path d="M37.5,422h24.577c4.142,0,7.5-3.357,7.5-7.5s-3.358-7.5-7.5-7.5H37.5c-4.142,0-7.5,3.357-7.5,7.5S33.358,422,37.5,422z"/>
		<path d="M37.5,452h60c4.142,0,7.5-3.357,7.5-7.5s-3.358-7.5-7.5-7.5h-60c-4.142,0-7.5,3.357-7.5,7.5S33.358,452,37.5,452z"/>
		<path d="M37.5,482H81c4.142,0,7.5-3.357,7.5-7.5S85.142,467,81,467H37.5c-4.142,0-7.5,3.357-7.5,7.5S33.358,482,37.5,482z"/>
		<path d="M226,422h24.577c4.142,0,7.5-3.357,7.5-7.5s-3.358-7.5-7.5-7.5H226c-4.142,0-7.5,3.357-7.5,7.5S221.858,422,226,422z"/>
		<path d="M226,452h60c4.142,0,7.5-3.357,7.5-7.5s-3.358-7.5-7.5-7.5h-60c-4.142,0-7.5,3.357-7.5,7.5S221.858,452,226,452z"/>
		<path d="M226,482h43.5c4.142,0,7.5-3.357,7.5-7.5s-3.358-7.5-7.5-7.5H226c-4.142,0-7.5,3.357-7.5,7.5S221.858,482,226,482z"/>
		<path d="M414.5,422h24.577c4.142,0,7.5-3.357,7.5-7.5s-3.358-7.5-7.5-7.5H414.5c-4.142,0-7.5,3.357-7.5,7.5S410.358,422,414.5,422&#10;&#9;&#9;&#9;z"/>
		<path d="M482,444.5c0-4.143-3.358-7.5-7.5-7.5h-60c-4.142,0-7.5,3.357-7.5,7.5s3.358,7.5,7.5,7.5h60&#10;&#9;&#9;&#9;C478.642,452,482,448.643,482,444.5z"/>
		<path d="M414.5,467c-4.142,0-7.5,3.357-7.5,7.5s3.358,7.5,7.5,7.5H458c4.142,0,7.5-3.357,7.5-7.5s-3.358-7.5-7.5-7.5H414.5z"/>
		<path d="M504.5,439.833c4.142,0,7.5-3.357,7.5-7.5V394.5c0-9.649-7.851-17.5-17.5-17.5H452v-45.336c0-4.143-3.358-7.5-7.5-7.5&#10;&#9;&#9;&#9;h-181v-83.205H381c13.132,0,24.137-9.254,26.852-21.583c0.026,0,0.052,0.002,0.078,0.002c20.668,0,37.484-16.815,37.484-37.483&#10;&#9;&#9;&#9;V70.088c8.729-3.096,15-11.433,15-21.21c0-12.406-10.093-22.5-22.5-22.5h-29.443C407.88,11.733,395.787,0,381,0H131&#10;&#9;&#9;&#9;c-15.164,0-27.5,12.337-27.5,27.5v90.167c0,4.143,3.358,7.5,7.5,7.5s7.5-3.357,7.5-7.5V105h251.914v76.895&#10;&#9;&#9;&#9;c0,15.429,9.373,28.708,22.736,34.45c-1.308,5.504-6.252,9.615-12.15,9.615H131c-6.893,0-12.5-5.607-12.5-12.5v-62.015&#10;&#9;&#9;&#9;c0-4.143-3.358-7.5-7.5-7.5s-7.5,3.357-7.5,7.5v62.015c0,15.164,12.336,27.5,27.5,27.5h117.5v83.205h-181&#10;&#9;&#9;&#9;c-4.142,0-7.5,3.357-7.5,7.5V377H17.5C7.851,377,0,384.851,0,394.5v100c0,9.649,7.851,17.5,17.5,17.5h100&#10;&#9;&#9;&#9;c9.649,0,17.5-7.851,17.5-17.5v-100c0-9.649-7.851-17.5-17.5-17.5H75v-37.836h173.5V377H206c-9.649,0-17.5,7.851-17.5,17.5v100&#10;&#9;&#9;&#9;c0,9.649,7.851,17.5,17.5,17.5h100c9.649,0,17.5-7.851,17.5-17.5v-100c0-9.649-7.851-17.5-17.5-17.5h-42.5v-37.836H437V377h-42.5&#10;&#9;&#9;&#9;c-9.649,0-17.5,7.851-17.5,17.5v100c0,9.649,7.851,17.5,17.5,17.5h100c9.649,0,17.5-7.851,17.5-17.5v-26.167&#10;&#9;&#9;&#9;c0-4.143-3.358-7.5-7.5-7.5s-7.5,3.357-7.5,7.5V494.5c0,1.379-1.122,2.5-2.5,2.5h-100c-1.378,0-2.5-1.121-2.5-2.5v-100&#10;&#9;&#9;&#9;c0-1.379,1.122-2.5,2.5-2.5h100c1.378,0,2.5,1.121,2.5,2.5v37.833C497,436.476,500.358,439.833,504.5,439.833z M385.414,71.378h45&#10;&#9;&#9;&#9;v36.783h-45V71.378z M445.414,48.878c0,4.136-3.364,7.5-7.5,7.5h-60c-4.136,0-7.5-3.364-7.5-7.5s3.364-7.5,7.5-7.5h60&#10;&#9;&#9;&#9;C442.05,41.378,445.414,44.742,445.414,48.878z M118.5,90V27.5c0-6.893,5.607-12.5,12.5-12.5h250&#10;&#9;&#9;&#9;c6.514,0,11.873,5.01,12.443,11.378h-15.529c-12.407,0-22.5,10.094-22.5,22.5c0,9.777,6.271,18.114,15,21.21V90H118.5z&#10;&#9;&#9;&#9; M385.414,181.895v-58.733h45v58.733c0,12.397-10.086,22.483-22.517,22.483C395.5,204.378,385.414,194.292,385.414,181.895z&#10;&#9;&#9;&#9; M120,394.5v100c0,1.379-1.122,2.5-2.5,2.5h-100c-1.378,0-2.5-1.121-2.5-2.5v-100c0-1.379,1.122-2.5,2.5-2.5h100&#10;&#9;&#9;&#9;C118.878,392,120,393.121,120,394.5z M308.5,394.5v100c0,1.379-1.122,2.5-2.5,2.5H206c-1.378,0-2.5-1.121-2.5-2.5v-100&#10;&#9;&#9;&#9;c0-1.379,1.122-2.5,2.5-2.5h100C307.378,392,308.5,393.121,308.5,394.5z"/>
	</g>
</g>
<g>
</g>
<g>
</g>
<g>
</g>
<g>
</g>
<g>
</g>
<g>
</g>
<g>
</g>
<g>
</g>
<g>
</g>
<g>
</g>
<g>
</g>
<g>
</g>
<g>
</g>
<g>
</g>
<g>
</g>
</svg>